<?xml version="1.0" encoding="UTF-8"?>
<svg width="287px" height="65px" viewBox="0 0 287 65" version="1.1" xmlns="http://www.w3.org/2000/svg" xmlns:xlink="http://www.w3.org/1999/xlink">
    <!-- Generator: Sketch 50.2 (55047) - http://www.bohemiancoding.com/sketch -->
    <title>NBT-logo-dark</title>
    <desc>Created with Sketch.</desc>
    <defs></defs>
    <g id="NBT-logo-dark" stroke="none" stroke-width="1" fill="none" fill-rule="evenodd">
        <g id="NBT-HelpDesk" transform="translate(0.000000, 11.000000)" fill-rule="nonzero">
            <g id="Group-44">
                <path d="M60.6127891,18.632 C60.6127891,18.632 63.5820408,2.992 63.8519728,1.768 C64.1219048,0.544 63.1771429,0.408 62.9072109,0.408 L55.6190476,0.408 C54.9210699,0.441012324 54.29815,0.859473862 53.9994558,1.496 C53.9994558,1.768 48.3308844,29.784 47.7910204,31.824 L47.6560544,32.64 C47.6560544,33.048 48.0609524,33.728 48.6008163,33.728 L56.4288435,33.728 C57.1194092,33.6728567 57.7323187,33.2611199 58.0484354,32.64 L60.6127891,18.632 Z" id="Fill-18" fill="#0079C1"></path>
                <path d="M50.6253061,1.632 C50.3553741,2.584 49.6805442,6.528 49.5455782,7.616 C49.3885111,8.24247335 48.8369431,8.68710837 48.1959184,8.704 L42.6623129,8.704 C42.0229341,8.72540422 41.4737279,9.16813529 41.3126531,9.792 C41.3126531,9.792 40.6378231,12.376 40.6378231,12.784 C40.6378231,13.192 41.0427211,13.872 41.582585,13.872 L47.2511565,13.872 C47.9259864,13.872 48.3308844,14.28 48.1959184,14.96 C48.1959184,15.368 47.2511565,19.312 47.2511565,19.992 C47.09822,20.6211409 46.5441973,21.0677547 45.9014966,21.08 L39.9629932,21.08 C39.3268192,21.1100525 38.7820778,21.5491843 38.6133333,22.168 C38.6133333,22.304 36.5888435,32.504 36.3189116,32.776 C36.2850414,33.1014594 36.1232471,33.3996996 35.8696553,33.6041273 C35.6160635,33.808555 35.2917938,33.9021451 34.9692517,33.864 L27.1412245,33.864 C26.0614966,33.864 26.7363265,31.96 26.7363265,31.96 C26.7363265,31.96 32.8097959,1.632 32.8097959,1.36 C32.8097959,1.088 33.4846259,0.408 34.1594558,0.408 L49.6805442,0.408 C49.9504762,0.408 50.7602721,0.952 50.6253061,1.632" id="Fill-20" fill="#282C37"></path>
                <path d="M19.7180952,10.336 C20.7978231,10.064 25.6565986,8.432 26.6013605,8.296 C27.6810884,7.888 27.6810884,7.344 27.2761905,5.984 C26.6013605,3.672 24.7118367,0 17.6936054,0 C7.84108844,0.272 3.11727891,6.664 0.822857143,16.592 C-1.20163265,26.656 2.44244898,33.592 11.0802721,33.592 C14.943126,33.600532 18.6442903,32.0302077 21.3376871,29.24 C22.6873469,27.608 25.3866667,24.616 27.2761905,15.232 C27.5461224,14.144 26.6013605,13.328 25.3866667,13.328 L16.4789116,13.328 C15.5406862,13.3410547 14.7456841,14.0277058 14.5893878,14.96 C14.3893347,16.3444364 14.0732847,17.7093136 13.6446259,19.04 C13.3746939,20.4 13.6446259,20.672 15.2642177,20.672 L16.8838095,20.672 C16.5024607,22.0383667 15.8091547,23.2958785 14.8593197,24.344 C14.2397858,24.9593709 13.4303467,25.3432017 12.564898,25.432 C11.3142074,25.5257895 10.2002718,24.6396292 10.0005442,23.392 C9.75607229,21.1112701 9.93920625,18.8045576 10.5404082,16.592 C11.2152381,13.872 11.6201361,11.288 12.8348299,9.656 C13.5728415,8.53790288 14.7532254,7.79451089 16.0740136,7.616 C19.3131973,7.344 17.9635374,10.608 19.7180952,10.336" id="Fill-22" fill="#282C37"></path>
            </g>
            <polygon id="Shape" fill="#282C37" points="96.8513514 34 96.8513514 19.6784123 81.0945946 19.6784123 81.0945946 34 74 34 74 0 81.0945946 0 81.0945946 13.3576347 96.8513514 13.3576347 96.8513514 0 104 0 104 34"></polygon>
            <path d="M109.004558,21.4637612 C108.914505,18.156968 110.162112,14.9563944 112.458367,12.6034644 C114.754621,10.2505345 117.900277,8.94941189 121.166631,9.00150625 C128.21406,9.00150625 133,14.3272562 133,22.0495936 L133,23.5408036 L115.473466,23.5408036 C115.907356,26.4433374 118.247734,28.8665536 122.231634,28.8665536 C124.511225,28.8480493 126.713873,28.0292626 128.463875,26.5498524 L131.238143,30.690623 C128.504017,32.9331425 125.064636,34.1051203 121.547929,33.9925879 C114.395315,33.9792736 109.004558,29.1062123 109.004558,21.4637612 Z M121.166631,14.1275406 C118.20175,13.9369139 115.638438,16.1999933 115.420873,19.2003174 L127.004427,19.2003174 C126.907359,17.7386691 126.234218,16.3778647 125.136352,15.4238696 C124.038486,14.4698745 122.608038,14.0027556 121.166631,14.1275406 Z" id="Shape" fill="#282C37"></path>
            <polygon id="Shape" fill="#282C37" points="138 34 138 0 144 0 144 34"></polygon>
            <path d="M156.218302,30.683166 L156.218302,43 L150,43 L150,9.59566341 L156.218302,9.59566341 L156.218302,12.6545694 C157.961527,10.3368326 160.662917,8.98508444 163.521499,9.00012419 C169.594267,9.00012419 174,13.6020182 174,21.6688677 C174,29.7357172 169.594267,34.3917512 163.521499,34.3917512 C160.652244,34.4002778 157.946514,33.0262999 156.218302,30.683166 Z M167.583241,21.6688677 C167.583241,17.5136281 165.135612,14.6577468 161.563396,14.6577468 C159.49124,14.7002649 157.547766,15.6943701 156.271224,17.3647433 L156.271224,25.8782473 C157.543985,27.5662153 159.481339,28.5918745 161.563396,28.6799886 C165.135612,28.7341285 167.583241,25.8782473 167.583241,21.6688677 Z" id="Shape" fill="#282C37"></path>
            <path d="M180,34 L180,0 L191.6055,0 C202.179706,0 209,7.39489672 209,17.0206561 C209,26.6464156 202.124704,34 191.6055,34 L180,34 Z M204.627312,17.0206561 C204.627312,9.6946132 199.993362,3.77318753 191.6055,3.77318753 L184.221432,3.77318753 L184.221432,30.2268125 L191.6055,30.2268125 C199.842105,30.2268125 204.627312,24.3053868 204.627312,17.0206561 Z" id="Shape" fill="#282C37"></path>
            <path d="M214,21.4713306 C214,14.5694618 218.893617,9 225.652099,9 C232.794135,9 237,14.622758 237,21.7644602 L237,22.7104693 L217.914894,22.7104693 C217.949609,24.9332856 218.862322,27.0504929 220.450999,28.5934346 C222.039676,30.1363763 224.173281,30.9777891 226.379528,30.9314212 C229.133895,30.9492374 231.779475,29.8495428 233.719954,27.8802089 L235.492237,30.2918658 C232.978558,32.7485423 229.589668,34.0834197 226.088557,33.9959576 C219.039103,33.9959576 214,28.9194864 214,21.4713306 Z M225.599195,12.0512123 C220.560092,12.0512123 218.073606,16.3415632 217.875216,19.9390625 L233.389304,19.9390625 C233.432661,17.8409514 232.627162,15.8152964 231.157921,14.3276218 C229.688681,12.8399471 227.682055,12.0181938 225.599195,12.0512123 Z" id="Shape" fill="#282C37"></path>
            <path d="M241,30.2913823 L242.887949,27.6226089 C244.929432,29.7899703 247.778245,31.0211948 250.761099,31.0252949 C254.42988,31.0252949 256.465116,29.3039361 256.465116,26.9287278 C256.465116,21.1508335 241.642706,24.713646 241.642706,15.8666623 C241.642706,12.1170357 244.816068,9.00791478 250.520085,9.00791478 C253.827354,8.88780423 257.03666,10.1391096 259.384073,12.4639763 L257.656801,15.0259987 C255.846865,13.0235698 253.250425,11.9076581 250.546864,11.9702532 C247.266385,11.9702532 245.19098,13.5982049 245.19098,15.7198798 C245.19098,20.8973001 260,17.494614 260,26.7819453 C260,30.7851053 256.786469,33.9876334 250.627202,33.9876334 C247.041818,34.144407 243.553082,32.804948 241,30.2913823 Z" id="Shape" fill="#282C37"></path>
            <polygon id="Shape" fill="#282C37" points="282.216371 33.9587379 273.688452 22.9555016 269.69099 26.9716828 269.69099 34 266 34 266 0 269.69099 0 269.69099 22.4466019 282.216371 9.36650485 286.893401 9.36650485 276.340102 20.5210356 287 33.9587379"></polygon>
        </g>
    </g>
</svg>