<?xml version="1.0" encoding="UTF-8"?>
<svg width="160px" height="24px" viewBox="0 0 160 24" version="1.1" xmlns="http://www.w3.org/2000/svg" xmlns:xlink="http://www.w3.org/1999/xlink">
    <!-- Generator: Sketch 50.2 (55047) - http://www.bohemiancoding.com/sketch -->
    <title>kayako-logo-main</title>
    <desc>Created with Sketch.</desc>
    <defs></defs>
    <g id="Other" stroke="none" stroke-width="1" fill="none" fill-rule="evenodd">
        <g id="4B-Copy" transform="translate(-494.000000, -796.000000)" fill="#FFFFFF" fill-rule="nonzero">
            <g id="kayako-logo-main" transform="translate(494.000000, 796.000000)">
                <g id="Group-44">
                    <path d="M33.7911019,10.3992558 C33.7911019,10.3992558 35.4464339,1.66995349 35.5969186,0.986790698 C35.7474034,0.303627907 35.2207068,0.22772093 35.0702221,0.22772093 L31.0071346,0.22772093 C30.6180181,0.246146413 30.2707456,0.479706342 30.1042262,0.834976744 C30.1042262,0.986790698 26.944047,16.6236279 26.6430776,17.7622326 L26.5678352,18.2176744 C26.5678352,18.4453953 26.7935623,18.8249302 27.0945317,18.8249302 L31.4585887,18.8249302 C31.8435731,18.7941526 32.1852648,18.564346 32.3614971,18.2176744 L33.7911019,10.3992558 Z" id="Fill-18"></path>
                    <path d="M28.2231672,0.910883721 C28.0726825,1.44223256 27.6964706,3.64353488 27.6212283,4.2507907 C27.5336648,4.60045024 27.2261704,4.84861863 26.8688047,4.85804651 L23.7838678,4.85804651 C23.4274197,4.86999305 23.121242,5.11709877 23.0314442,5.46530233 C23.0314442,5.46530233 22.6552324,6.90753488 22.6552324,7.13525581 C22.6552324,7.36297674 22.8809595,7.74251163 23.1819289,7.74251163 L26.3421081,7.74251163 C26.7183199,7.74251163 26.944047,7.97023256 26.8688047,8.34976744 C26.8688047,8.57748837 26.3421081,10.7787907 26.3421081,11.1583256 C26.2568474,11.509474 25.9479846,11.7587468 25.5896845,11.7655814 L22.2790206,11.7655814 C21.9243591,11.7823549 21.6206706,12.0274517 21.526597,12.3728372 C21.526597,12.4487442 20.3979616,18.1417674 20.2474768,18.2935814 C20.2285945,18.4752331 20.1383956,18.6416928 19.9970204,18.755792 C19.8556451,18.8698912 19.6748677,18.9221275 19.4950532,18.9008372 L15.1309962,18.9008372 C14.5290573,18.9008372 14.9052691,17.8381395 14.9052691,17.8381395 C14.9052691,17.8381395 18.2911754,0.910883721 18.2911754,0.759069767 C18.2911754,0.607255814 18.6673872,0.22772093 19.043599,0.22772093 L27.6964706,0.22772093 C27.8469554,0.22772093 28.2984095,0.531348837 28.2231672,0.910883721" id="Fill-20"></path>
                    <path d="M10.9926663,5.76893023 C11.5946052,5.61711628 14.3033303,4.70623256 14.8300268,4.63032558 C15.4319657,4.40260465 15.4319657,4.09897674 15.2062386,3.33990698 C14.8300268,2.04948837 13.7766337,0 9.86403091,0 C4.3713385,0.151813953 1.73785584,3.71944186 0.458735689,9.26065116 C-0.669899737,14.8777674 1.36164403,18.7490233 6.17715518,18.7490233 C8.33066257,18.7537853 10.3940295,17.8773252 11.8955747,16.32 C12.6479983,15.4091163 14.1528455,13.7391628 15.2062386,8.5015814 C15.3567233,7.89432558 14.8300268,7.43888372 14.1528455,7.43888372 L9.18684965,7.43888372 C8.6637972,7.44617009 8.22059044,7.82941717 8.13345659,8.34976744 C8.02192874,9.12247612 7.84573361,9.88426807 7.60676006,10.6269767 C7.45627533,11.3860465 7.60676006,11.5378605 8.5096684,11.5378605 L9.41257674,11.5378605 C9.19997808,12.3004838 8.81346601,13.0023508 8.28394131,13.5873488 C7.93855656,13.9308116 7.48730128,14.1450428 7.00482116,14.1946047 C6.30757206,14.2469523 5.68656268,13.7523512 5.57521629,13.056 C5.43892532,11.7830345 5.54102091,10.4955671 5.87618574,9.26065116 C6.25239754,7.74251163 6.47812463,6.30027907 7.15530589,5.38939535 C7.56674092,4.76534114 8.22479467,4.35042468 8.96112257,4.2507907 C10.7669392,4.09897674 10.0145156,5.92074419 10.9926663,5.76893023" id="Fill-22"></path>
                </g>
                <polygon id="Shape" points="53.9490991 19 53.9490991 10.9967598 45.0202703 10.9967598 45.0202703 19 41 19 41 0 45.0202703 0 45.0202703 7.46456054 53.9490991 7.46456054 53.9490991 0 58 0 58 19"></polygon>
                <path d="M61.0024689,11.9797063 C60.9536903,10.1279021 61.6294775,8.33558084 62.8732819,7.01794008 C64.1170863,5.70029931 65.8209831,4.97167066 67.5902586,5.0008435 C71.4076157,5.0008435 74,7.98326348 74,12.3077724 L74,13.1428501 L64.5064608,13.1428501 C64.7414847,14.7682689 66.0091891,16.12527 68.1671353,16.12527 C69.4019137,16.1149076 70.5950144,15.6563871 71.5429325,14.8279173 L73.0456607,17.1467488 C71.5646759,18.4025599 69.701678,19.0588674 67.7967947,18.9958492 C63.9224622,18.9883932 61.0024689,16.2594789 61.0024689,11.9797063 Z M67.5902586,7.87142273 C65.9842811,7.76467179 64.5958207,9.03199627 64.4779731,10.7121777 L70.7523977,10.7121777 C70.6998197,9.89365469 70.3352013,9.13160424 69.740524,8.59736699 C69.1458467,8.06312973 68.3710205,7.80154314 67.5902586,7.87142273 Z" id="Shape"></path>
                <polygon id="Shape" points="77 19 77 0 80 0 80 19"></polygon>
                <path d="M87.3682469,17.1170634 L87.3682469,24 L84,24 L84,5.33287072 L87.3682469,5.33287072 L87.3682469,7.04225939 C88.3124937,5.74705349 89.7757468,4.99166483 91.3241455,5.0000694 C94.6135612,5.0000694 97,7.57171605 97,12.0796614 C97,16.5876067 94.6135612,19.189508 91.3241455,19.189508 C89.7699655,19.1942729 88.3043615,18.4264617 87.3682469,17.1170634 Z M93.5242558,12.0796614 C93.5242558,9.75761571 92.1984565,8.16168205 90.263506,8.16168205 C89.1410882,8.18544212 88.0883735,8.74097151 87.3969129,9.67441538 L87.3969129,14.4319617 C88.0863253,15.375238 89.1357254,15.9484004 90.263506,15.9976407 C92.1984565,16.0278953 93.5242558,14.4319617 93.5242558,12.0796614 Z" id="Shape"></path>
                <path d="M100,19 L100,0 L106.403034,0 C112.23708,0 116,4.13244229 116,9.51154313 C116,14.890644 112.206734,19 106.403034,19 L100,19 Z M113.587483,9.51154313 C113.587483,5.41757796 111.030821,2.10854597 106.403034,2.10854597 L102.329066,2.10854597 L102.329066,16.8914541 L106.403034,16.8914541 C110.947369,16.8914541 113.587483,13.582422 113.587483,9.51154313 Z" id="Shape"></path>
                <path d="M119,11.9839451 C119,8.11889858 121.765958,5 125.585969,5 C129.622771,5 132,8.1487445 132,12.1480977 L132,12.6778628 L121.212766,12.6778628 C121.232387,13.9226399 121.748269,15.108276 122.646217,15.9723234 C123.544164,16.8363707 124.750116,17.3075619 125.997124,17.2815958 C127.553941,17.2915729 129.049268,16.6757439 130.14606,15.5729169 L131.147786,16.9234448 C129.727011,18.2991837 127.811551,19.046715 125.832662,18.9977362 C121.848189,18.9977362 119,16.1549124 119,11.9839451 Z M125.556066,6.70867889 C122.707878,6.70867889 121.302472,9.1112754 121.190339,11.1258749 L129.959171,11.1258749 C129.983677,9.95093275 129.528395,8.816566 128.697956,7.98346818 C127.867515,7.15037036 126.733335,6.6901885 125.556066,6.70867889 Z" id="Shape"></path>
                <path d="M134,16.923174 L135.093023,15.428661 C136.274934,16.6423834 137.924247,17.331869 139.651163,17.3341652 C141.775194,17.3341652 142.953488,16.3702042 142.953488,15.0400875 C142.953488,11.8044668 134.372093,13.7996418 134.372093,8.84533087 C134.372093,6.74554001 136.209302,5.00443228 139.511628,5.00443228 C141.426363,4.93717037 143.284382,5.63790137 144.643411,6.93982671 L143.643411,8.37455926 C142.595554,7.2531991 141.092351,6.62828855 139.527132,6.66334178 C137.627907,6.66334178 136.426356,7.57499476 136.426356,8.76313266 C136.426356,11.662488 145,9.75698385 145,14.9578894 C145,17.199659 143.139535,18.9930747 139.573643,18.9930747 C137.497895,19.0808679 135.4781,18.3307708 134,16.923174 Z" id="Shape"></path>
                <polygon id="Shape" points="157.266497 18.9769418 152.393401 12.8280744 150.109137 15.072411 150.109137 19 148 19 148 0 150.109137 0 150.109137 12.5436893 157.266497 5.23422329 159.939086 5.23422329 153.908629 11.4676376 160 18.9769418"></polygon>
            </g>
        </g>
    </g>
</svg>