<?xml version="1.0" encoding="iso-8859-1"?>
<!-- Generator: Adobe Illustrator 19.0.0, SVG Export Plug-In . SVG Version: 6.00 Build 0)  -->
<svg version="1.1" id="Capa_1" xmlns="http://www.w3.org/2000/svg" xmlns:xlink="http://www.w3.org/1999/xlink" x="0px" y="0px"
	 viewBox="0 0 512 512" style="enable-background:new 0 0 512 512;" xml:space="preserve" width="36px" height="36px">
<g>
	<g>
		<path d="M480,112H368c-8.832,0-16,7.168-16,16c0,8.832,7.168,16,16,16h112v288H32V144h112c8.832,0,16-7.168,16-16
			c0-8.832-7.168-16-16-16H32c-17.952,0-32,14.048-32,32v288c0,17.952,14.048,32,32,32h448c17.952,0,32-14.048,32-32V144
			C512,126.048,497.952,112,480,112z" fill="#909090"/>
	</g>
</g>
<g>
	<g>
		<path d="M144,208c-26.464,0-48,21.536-48,48s21.536,48,48,48s48-21.536,48-48S170.464,208,144,208z M144,272
			c-8.8,0-16-7.168-16-16c0-8.832,7.2-16,16-16s16,7.168,16,16C160,264.832,152.8,272,144,272z" fill="#909090"/>
	</g>
</g>
<g>
	<g>
		<path d="M215.52,337.888c-44.8-23.872-98.24-23.872-143.04,0C67.264,340.672,64,346.08,64,352v32c0,8.832,7.168,16,16,16h128
			c8.832,0,16-7.168,16-16v-32C224,346.08,220.736,340.672,215.52,337.888z M192,368H96v-5.984c30.624-13.376,65.376-13.376,96,0
			V368z" fill="#909090"/>
	</g>
</g>
<g>
	<g>
		<path d="M400,272H272c-8.832,0-16,7.168-16,16c0,8.832,7.168,16,16,16h128c8.832,0,16-7.168,16-16
			C416,279.168,408.832,272,400,272z" fill="#909090"/>
	</g>
</g>
<g>
	<g>
		<path d="M400,336H272c-8.832,0-16,7.168-16,16c0,8.832,7.168,16,16,16h128c8.832,0,16-7.168,16-16
			C416,343.168,408.832,336,400,336z" fill="#909090"/>
	</g>
</g>
<g>
	<g>
		<path d="M256,48c-35.296,0-64,28.704-64,64v48c0,8.832,7.168,16,16,16h96c8.832,0,16-7.168,16-16v-48
			C320,76.704,291.296,48,256,48z M288,144h-64v-32c0-17.632,14.336-32,32-32s32,14.368,32,32V144z" fill="#909090"/>
	</g>
</g>
<g>
</g>
<g>
</g>
<g>
</g>
<g>
</g>
<g>
</g>
<g>
</g>
<g>
</g>
<g>
</g>
<g>
</g>
<g>
</g>
<g>
</g>
<g>
</g>
<g>
</g>
<g>
</g>
<g>
</g>
</svg>
