<?xml version="1.0" encoding="utf-8"?>
<svg width="18" height="18" viewBox="0 -54 440 430" xmlns="http://www.w3.org/2000/svg"><path d="M144 384h32v-16h160v16h32v-16h48h16v-16v-320v-16h-16h-320h-16v16v320v16h16h48v16zM112 336v-32h288v32h-32v-16h-32v16h-160v-16h-32v16h-32zM112 272v-224h288v224h-288zM208 240h32v-32h-32v32zM272 240h32v-32h-32v32zM336 240h32v-32h-32v32zM144 176h32v-32h-32
v32zM208 176h32v-32h-32v32zM272 176h32v-32h-32v32zM336 176h32v-32h-32v32zM144 112h32v-32h-32v32zM208 112h32v-32h-32v32zM272 112h32v-32h-32v32z" fill="#5f6c73" /></svg>