<svg width="134" height="48" xmlns="http://www.w3.org/2000/svg" xmlns:xlink="http://www.w3.org/1999/xlink">
 <!-- Created with Method Draw - http://github.com/duopixel/Method-Draw/ -->
 <g>
  <title>background</title>
  <rect x="-1" y="-1" width="136" height="50" id="canvas_background" fill="#fff"/>
  <g id="canvasGrid" display="none">
   <rect id="svg_1" width="100%" height="100%" x="0" y="0" stroke-width="0" fill="url(#gridpattern)"/>
  </g>
 </g>
 <g>
  <title>Layer 1</title>
  <defs>
   <path id="svg_27" d="m0,25.956c0,20.0688 16.2688,25.956 36.3384,25.956c20.0688,0 36.3384,-5.8872 36.3384,-25.956c0,-20.0688 -16.2696,-25.956 -36.3384,-25.956c-20.0696,0 -36.3384,5.8872 -36.3384,25.956z"/>
  </defs>
  <g id="svg_32">
   <g id="svg_30" transform="matrix(0.8455542280771944,0,0,0.8455542280771944,0,0) ">
    <title>background</title>
    <rect fill="#ffffff" id="svg_28" height="119" width="147" y="-27.804289" x="-0.391973"/>
   </g>
   <g id="svg_31" transform="matrix(0.8455542280771944,0,0,0.8455542280771944,0,0) ">
    <title>Layer 1</title>
    <use stroke-width="0" stroke="null" x="-12.511183" y="-28.625232" transform="translate(96.8401107788086,34.563899993896484) scale(1.035967230796814,1) translate(-96.8401107788086,-34.563899993896484) translate(37.047908782958984,78.72520446777344) scale(1,1.051168441772461) translate(-37.047908782958984,-78.72520446777344) translate(40.96044158935547,43.785301208496094) matrix(0.8128500179120542,0,0,0.7958126633812309,-19.857223721161418,-10.30802844533227) " fill="#32ba7c" id="svg_26" class="bubble__color" xlink:href="#svg_27" fill-rule="evenodd" xmlns:xlink="http://www.w3.org/1999/xlink"/>
    <ellipse stroke="#000" ry="3" rx="3" id="svg_25" cy="29.186724" cx="23.388624" stroke-width="0" fill="#ffffff"/>
    <ellipse stroke="#000" ry="3" rx="3" id="svg_24" cy="28.929107" cx="53.138071" stroke-width="0" fill="#ffffff"/>
    <ellipse stroke="#000" ry="3" rx="3" id="svg_23" cy="28.929107" cx="38.442563" stroke-width="0" fill="#ffffff"/>
    <!-- Created with Method Draw - http://github.com/duopixel/Method-Draw/ -->
    <g stroke="null" transform="matrix(0.9475911943571512,0,0,0.9735136094872309,-172.8197278947927,-21.97950512968633) " id="svg_19">
     <title>background</title>
     <rect stroke="null" fill="none" id="svg_22" height="47" width="142" y="-78.38839" x="287.908558"/>
     <g stroke="null" display="none" id="svg_20">
      <rect stroke="null" fill="url(#gridpattern)" stroke-width="0" y="-77.38839" x="288.908558" height="45" width="140" id="svg_21"/>
     </g>
    </g>
    <text stroke="#000" transform="matrix(1.0279945662050312,0,0,1.1106872321914745,23.072018591039853,22.605289121674872) " xml:space="preserve" text-anchor="start" font-family="Helvetica, Arial, sans-serif" font-size="9" id="svg_18" y="3.564584" x="53.711246" stroke-opacity="null" stroke-width="0" fill="#5b5b5b" opacity="0.87" font-weight="bold">LIVE SUPPORT</text>
    <text stroke="null" font-weight="bold" xml:space="preserve" text-anchor="start" font-family="Oswald, sans-serif" font-size="10" id="svg_17" y="60.45172" x="273.628425" stroke-width="0" fill="#32ba7c" transform="matrix(1.1580001320886675,0,0,1.1666994276751057,-215.60007020391663,-28.943766333113075) ">ONLINE</text>
    <ellipse stroke="null" transform="matrix(0.9475911943571512,0,0,0.9735136094872309,-172.8197278947927,-21.97950512968633) " ry="3" rx="3" id="svg_16" cy="61.233915" cx="281.783881" stroke-width="0" fill="#3CC676"/>
    <!-- Created with Method Draw - http://github.com/duopixel/Method-Draw/ -->
   </g>
  </g>
 </g>
</svg>