<svg width="134" height="48" xmlns="http://www.w3.org/2000/svg" xmlns:xlink="http://www.w3.org/1999/xlink">
 <!-- Created with Method Draw - http://github.com/duopixel/Method-Draw/ -->
 <g>
  <title>background</title>
  <rect x="-1" y="-1" width="136" height="50" id="canvas_background" fill="#fff"/>
  <g id="canvasGrid" display="none">
   <rect id="svg_1" width="100%" height="100%" x="0" y="0" stroke-width="0" fill="url(#gridpattern)"/>
  </g>
 </g>
 <g>
  <title>Layer 1</title>
  <defs>
   <path id="svg_27" d="m0,25.956c0,20.0688 16.2688,25.956 36.3384,25.956c20.0688,0 36.3384,-5.8872 36.3384,-25.956c0,-20.0688 -16.2696,-25.956 -36.3384,-25.956c-20.0696,0 -36.3384,5.8872 -36.3384,25.956z"/>
  </defs>
  <g id="svg_32">
   <g id="svg_30" transform="matrix(0.8455542280771944,0,0,0.8455542280771944,0,0) ">
    <title>background</title>
    <rect fill="#ffffff" id="svg_28" height="119" width="147" y="-27.804289" x="-0.391973"/>
   </g>
   <g id="svg_31" transform="matrix(0.8455542280771944,0,0,0.8455542280771944,0,0) ">
    <title>Layer 1</title>
    <use stroke-width="0" x="-12.511183" y="-28.625232" transform="translate(96.8401107788086,34.563899993896484) scale(1.035967230796814,1) translate(-96.8401107788086,-34.563899993896484) translate(37.047908782958984,78.72520446777344) scale(1,1.051168441772461) translate(-37.047908782958984,-78.72520446777344) translate(40.96044158935547,43.785301208496094) matrix(0.8128500179120542,0,0,0.7958126633812309,-19.857223721161418,-10.30802844533227) " fill="#b2b2b2" id="svg_26" class="bubble__color" xlink:href="#svg_27" fill-rule="evenodd" xmlns:xlink="http://www.w3.org/1999/xlink"/>
    <ellipse stroke="#000" ry="3" rx="3" id="svg_25" cy="29.186724" cx="23.388624" stroke-width="0" fill="#ffffff"/>
    <ellipse stroke="#000" ry="3" rx="3" id="svg_24" cy="28.929107" cx="53.138071" stroke-width="0" fill="#ffffff"/>
    <ellipse stroke="#000" ry="3" rx="3" id="svg_23" cy="28.929107" cx="38.442563" stroke-width="0" fill="#ffffff"/>
    <!-- Created with Method Draw - http://github.com/duopixel/Method-Draw/ -->
    <g stroke="null" transform="matrix(0.9475911943571512,0,0,0.9735136094872309,-172.8197278947927,-21.97950512968633) " id="svg_19">
     <title>background</title>
     <rect stroke="null" fill="none" id="svg_22" height="47" width="142" y="-78.38839" x="287.908558"/>
     <g stroke="null" display="none" id="svg_20">
      <rect stroke="null" fill="url(#gridpattern)" stroke-width="0" y="-77.38839" x="288.908558" height="45" width="140" id="svg_21"/>
     </g>
    </g>
    <text stroke="#000" transform="matrix(1.0279945662050312,0,0,1.1106872321914745,23.072018591039853,22.605289121674872) " xml:space="preserve" text-anchor="start" font-family="Helvetica, Arial, sans-serif" font-size="9" id="svg_18" y="3.564584" x="53.711246" stroke-opacity="null" stroke-width="0" fill="#5b5b5b" opacity="0.87" font-weight="bold">LIVE SUPPORT</text>
    <!-- Created with Method Draw - http://github.com/duopixel/Method-Draw/ -->
    <text fill="#b2b2b2" stroke="null" stroke-width="0" stroke-opacity="null" fill-opacity="null" x="101.854996" y="40.66663" id="svg_2" font-size="10" font-family="Oswald, sans-serif" text-anchor="start" xml:space="preserve" font-weight="bold">OFFLINE</text>
   </g>
  </g>
  <g stroke-width="0" fill="#b2b2b2" transform="rotate(1.0176063776016235 81.4382095336914,31.80398178100625) " id="svg_38">
   <g stroke="null" transform="matrix(0.16302478434864395,0,0,0.1442026807179279,78.51864381317189,35.58179617520945) " id="svg_7">
    <path stroke="null" id="svg_8" d="m9.339739,-49.39294c-0.122,0.064 -0.375,0.238 -0.398,0.255c-2.65,1.736 -6.029,6.979 -7.091,10.45c-1.438,4.681 1.677,13.351 5.07,19.902c3.392,6.554 8.674,14.101 13.328,15.63c0.938,0.307 1.998,0.463 3.146,0.463c2.746,0 8.023,-0.887 9.905,-1.626c0,0 0.335,-0.125 0.465,-0.192c0.679,-0.352 1.18,-0.945 1.411,-1.672c0.229,-0.728 0.164,-1.498 -0.188,-2.174c-0.126,-0.24 -9.105,-8.024 -9.105,-8.024l-4.623,2.03c-0.543,0.28 -1.298,0.031 -1.576,-0.506l-8.605,-16.616c-0.143,-0.278 -0.172,-0.597 -0.078,-0.894c0.093,-0.298 0.298,-0.541 0.578,-0.686l5.166,-2.887c0,0 -3.445,-12.026 -3.553,-12.234c-0.48,-0.928 -1.488,-1.529 -2.568,-1.529c-0.449,0 -0.891,0.107 -1.284,0.31z"/>
   </g>
   <g stroke="null" transform="matrix(0.16302478434864395,0,0,0.1442026807179279,78.51864381317189,35.58179617520945) " id="svg_9"/>
   <g stroke="null" transform="matrix(0.16302478434864395,0,0,0.1442026807179279,78.51864381317189,35.58179617520945) " id="svg_10"/>
   <g stroke="null" transform="matrix(0.16302478434864395,0,0,0.1442026807179279,78.51864381317189,35.58179617520945) " id="svg_11"/>
   <g stroke="null" transform="matrix(0.16302478434864395,0,0,0.1442026807179279,78.51864381317189,35.58179617520945) " id="svg_12"/>
   <g stroke="null" transform="matrix(0.16302478434864395,0,0,0.1442026807179279,78.51864381317189,35.58179617520945) " id="svg_13"/>
   <g stroke="null" transform="matrix(0.16302478434864395,0,0,0.1442026807179279,78.51864381317189,35.58179617520945) " id="svg_14"/>
   <g stroke="null" transform="matrix(0.16302478434864395,0,0,0.1442026807179279,78.51864381317189,35.58179617520945) " id="svg_15"/>
   <g stroke="null" transform="matrix(0.16302478434864395,0,0,0.1442026807179279,78.51864381317189,35.58179617520945) " id="svg_16"/>
   <g stroke="null" transform="matrix(0.16302478434864395,0,0,0.1442026807179279,78.51864381317189,35.58179617520945) " id="svg_17"/>
   <g stroke="null" transform="matrix(0.16302478434864395,0,0,0.1442026807179279,78.51864381317189,35.58179617520945) " id="svg_29"/>
   <g stroke="null" transform="matrix(0.16302478434864395,0,0,0.1442026807179279,78.51864381317189,35.58179617520945) " id="svg_33"/>
   <g stroke="null" transform="matrix(0.16302478434864395,0,0,0.1442026807179279,78.51864381317189,35.58179617520945) " id="svg_34"/>
   <g stroke="null" transform="matrix(0.16302478434864395,0,0,0.1442026807179279,78.51864381317189,35.58179617520945) " id="svg_35"/>
   <g stroke="null" transform="matrix(0.16302478434864395,0,0,0.1442026807179279,78.51864381317189,35.58179617520945) " id="svg_36"/>
   <g stroke="null" transform="matrix(0.16302478434864395,0,0,0.1442026807179279,78.51864381317189,35.58179617520945) " id="svg_37"/>
  </g>
 </g>
</svg>