<svg width="134" height="48" xmlns="http://www.w3.org/2000/svg" xmlns:xlink="http://www.w3.org/1999/xlink">
 <!-- Created with Method Draw - http://github.com/duopixel/Method-Draw/ -->
 <g>
  <title>background</title>
  <rect fill="#fff" id="canvas_background" height="10.275854" width="25.103426" y="-1" x="-1"/>
  <g display="none" id="canvasGrid">
   <rect fill="url(#gridpattern)" stroke-width="0" y="0" x="0" height="100%" width="100%" id="svg_1"/>
  </g>
 </g>
 <g>
  <title>Layer 1</title>
  <defs>
   <path d="m0,25.956c0,20.0688 16.2688,25.956 36.3384,25.956c20.0688,0 36.3384,-5.8872 36.3384,-25.956c0,-20.0688 -16.2696,-25.956 -36.3384,-25.956c-20.0696,0 -36.3384,5.8872 -36.3384,25.956z" id="svg_27"/>
  </defs>
  <g id="svg_32">
   <g transform="matrix(0.8455542280771944,0,0,0.8455542280771944,0,0) " id="svg_30">
    <title transform="translate(1.3913583755493164,-2.782716751098633) ">background</title>
    <rect x="0.999385" y="-30.587006" width="147" height="119" id="svg_28" fill="#ffffff"/>
   </g>
   <g transform="matrix(0.8455542280771944,0,0,0.8455542280771944,0,0) " id="svg_31">
    <title transform="translate(1.3913583755493164,-2.782716751098633) ">Layer 1</title>
    <use fill-rule="evenodd" xlink:href="#svg_27" class="bubble__color" id="svg_26" fill="#32ba7c" transform="translate(96.8401107788086,34.563899993896484) scale(1.035967230796814,1) translate(-96.8401107788086,-34.563899993896484) translate(37.047908782958984,78.72520446777344) scale(1,1.051168441772461) translate(-37.047908782958984,-78.72520446777344) translate(40.96044158935547,43.785301208496094) matrix(0.8128500179120542,0,0,0.7958126633812309,-19.857223721161418,-10.30802844533227) " y="-31.951719" x="-10.858907" stroke="null" stroke-width="0" xmlns:xlink="http://www.w3.org/1999/xlink"/>
    <ellipse fill="#ffffff" stroke-width="0" cx="24.779982" cy="26.404007" id="svg_25" rx="3" ry="3" stroke="#000"/>
    <ellipse fill="#ffffff" stroke-width="0" cx="54.529429" cy="26.14639" id="svg_24" rx="3" ry="3" stroke="#000"/>
    <ellipse fill="#ffffff" stroke-width="0" cx="39.833921" cy="26.14639" id="svg_23" rx="3" ry="3" stroke="#000"/>
    <!-- Created with Method Draw - http://github.com/duopixel/Method-Draw/ -->
    <g id="svg_19" transform="matrix(0.9475911943571512,0,0,0.9735136094872309,-172.8197278947927,-21.97950512968633) " stroke="null">
     <title transform="translate(1.468310832977295,-2.858426094055176) ">background</title>
     <rect x="289.376869" y="-81.246816" width="142" height="47" id="svg_22" fill="none" stroke="null"/>
     <g id="svg_20" display="none" stroke="null">
      <rect id="svg_21" width="140" height="45" x="290.376869" y="-80.246816" stroke-width="0" fill="url(#gridpattern)" stroke="null"/>
     </g>
    </g>
    <text font-weight="bold" opacity="0.87" fill="#5b5b5b" stroke-width="0" stroke-opacity="null" x="55.064715" y="1.059183" id="svg_18" font-size="9" font-family="Helvetica, Arial, sans-serif" text-anchor="start" xml:space="preserve" transform="matrix(1.0279945662050312,0,0,1.1106872321914745,23.072018591039853,22.605289121674872) " stroke="#000">LIVE SUPPORT</text>
    <text transform="matrix(1.1580001320886675,0,0,1.1666994276751057,-215.60007020391663,-28.943766333113075) " fill="#32ba7c" stroke-width="0" x="274.829943" y="58.066601" id="svg_17" font-size="10" font-family="Oswald, sans-serif" text-anchor="start" xml:space="preserve" font-weight="bold" stroke="null">ONLINE</text>
    <!-- Created with Method Draw - http://github.com/duopixel/Method-Draw/ -->
    <g stroke-width="0" fill="#fff" id="svg_80">
     <g stroke="null" transform="matrix(0.2002947506128536,0,0,0.18462362663298496,35.19520111928614,12.511815521157587) " id="svg_63">
      <path fill="#3cc676" stroke="null" id="svg_64" d="m295.210768,97.801722c-0.122,0.064 -0.375,0.238 -0.398,0.255c-2.65,1.736 -6.029,6.979 -7.091,10.45c-1.438,4.681 1.677,13.351 5.07,19.902c3.392,6.554 8.674,14.101 13.328,15.63c0.938,0.307 1.998,0.463 3.146,0.463c2.746,0 8.023,-0.887 9.905,-1.626c0,0 0.335,-0.125 0.465,-0.192c0.679,-0.352 1.18,-0.945 1.411,-1.672c0.229,-0.728 0.164,-1.498 -0.188,-2.174c-0.126,-0.24 -9.105,-8.024 -9.105,-8.024l-4.623,2.03c-0.543,0.28 -1.298,0.031 -1.576,-0.506l-8.605,-16.616c-0.143,-0.278 -0.172,-0.597 -0.078,-0.894c0.093,-0.298 0.298,-0.541 0.578,-0.686l5.166,-2.887c0,0 -3.445,-12.026 -3.553,-12.234c-0.48,-0.928 -1.488,-1.529 -2.568,-1.529c-0.449,0 -0.891,0.107 -1.284,0.31z"/>
     </g>
     <g stroke="null" transform="matrix(0.2002947506128536,0,0,0.18462362663298496,35.19520111928614,12.511815521157587) " id="svg_65"/>
     <g stroke="null" transform="matrix(0.2002947506128536,0,0,0.18462362663298496,35.19520111928614,12.511815521157587) " id="svg_66"/>
     <g stroke="null" transform="matrix(0.2002947506128536,0,0,0.18462362663298496,35.19520111928614,12.511815521157587) " id="svg_67"/>
     <g stroke="null" transform="matrix(0.2002947506128536,0,0,0.18462362663298496,35.19520111928614,12.511815521157587) " id="svg_68"/>
     <g stroke="null" transform="matrix(0.2002947506128536,0,0,0.18462362663298496,35.19520111928614,12.511815521157587) " id="svg_69"/>
     <g stroke="null" transform="matrix(0.2002947506128536,0,0,0.18462362663298496,35.19520111928614,12.511815521157587) " id="svg_70"/>
     <g stroke="null" transform="matrix(0.2002947506128536,0,0,0.18462362663298496,35.19520111928614,12.511815521157587) " id="svg_71"/>
     <g stroke="null" transform="matrix(0.2002947506128536,0,0,0.18462362663298496,35.19520111928614,12.511815521157587) " id="svg_72"/>
     <g stroke="null" transform="matrix(0.2002947506128536,0,0,0.18462362663298496,35.19520111928614,12.511815521157587) " id="svg_73"/>
     <g stroke="null" transform="matrix(0.2002947506128536,0,0,0.18462362663298496,35.19520111928614,12.511815521157587) " id="svg_74"/>
     <g stroke="null" transform="matrix(0.2002947506128536,0,0,0.18462362663298496,35.19520111928614,12.511815521157587) " id="svg_75"/>
     <g stroke="null" transform="matrix(0.2002947506128536,0,0,0.18462362663298496,35.19520111928614,12.511815521157587) " id="svg_76"/>
     <g stroke="null" transform="matrix(0.2002947506128536,0,0,0.18462362663298496,35.19520111928614,12.511815521157587) " id="svg_77"/>
     <g stroke="null" transform="matrix(0.2002947506128536,0,0,0.18462362663298496,35.19520111928614,12.511815521157587) " id="svg_78"/>
     <g stroke="null" transform="matrix(0.2002947506128536,0,0,0.18462362663298496,35.19520111928614,12.511815521157587) " id="svg_79"/>
    </g>
   </g>
  </g>
 </g>
</svg>